<?xml version="1.0" standalone="no"?>
<!DOCTYPE svg PUBLIC "-//W3C//DTD SVG 20010904//EN"
 "http://www.w3.org/TR/2001/REC-SVG-20010904/DTD/svg10.dtd">
<svg version="1.0" xmlns="http://www.w3.org/2000/svg"
 width="700.000000pt" height="700.000000pt" viewBox="0 0 700.000000 700.000000"
 preserveAspectRatio="xMidYMid meet">
<metadata>
Created by potrace 1.14, written by Peter Selinger 2001-2017
</metadata>
<g transform="translate(0.000000,700.000000) scale(0.100000,-0.100000)"
fill="#000000" stroke="none">
<path d="M445 6995 c-5 -2 -37 -11 -70 -21 -88 -26 -166 -76 -232 -148 -65
-71 -103 -140 -127 -231 -14 -54 -16 -362 -16 -3090 0 -2635 2 -3038 15 -3093
47 -197 201 -350 400 -398 92 -21 6080 -21 6173 1 197 46 351 200 397 397 13
55 15 456 15 3093 0 2653 -2 3037 -15 3087 -53 199 -202 347 -397 393 -55 13
-455 15 -3098 14 -1669 0 -3039 -2 -3045 -4z"/>
</g>
</svg>
